<svg aria-hidden="true" style="position: absolute; width: 0; height: 0; overflow: hidden;" version="1.1" xmlns="http://www.w3.org/2000/svg" xmlns:xlink="http://www.w3.org/1999/xlink">
<defs>
<symbol id="icon-facebook" viewBox="0 0 16 16">
<title>facebook</title>
<path d="M15 16h-14c-0.553 0-1-0.447-1-1v-14c0-0.553 0.447-1 1-1h14c0.553 0 1 0.447 1 1v14c0 0.553-0.447 1-1 1zM14 2h-12v12h12v-12zM8 6c0-1.103 0.912-2 1.857-2h1.143v2h-1v1h1v2h-1v3h-2v-3h-1v-2h1v-1z"></path>
</symbol>
<symbol id="icon-instagram" viewBox="0 0 16 16">
<title>instagram</title>
<path d="M8 1.441c2.137 0 2.391 0.009 3.231 0.047 0.781 0.034 1.203 0.166 1.484 0.275 0.372 0.144 0.641 0.319 0.919 0.597 0.281 0.281 0.453 0.547 0.6 0.919 0.109 0.281 0.241 0.706 0.275 1.484 0.037 0.844 0.047 1.097 0.047 3.231s-0.009 2.391-0.047 3.231c-0.034 0.781-0.166 1.203-0.275 1.484-0.144 0.372-0.319 0.641-0.597 0.919-0.281 0.281-0.547 0.453-0.919 0.6-0.281 0.109-0.706 0.241-1.484 0.275-0.844 0.037-1.097 0.047-3.231 0.047s-2.391-0.009-3.231-0.047c-0.781-0.034-1.203-0.166-1.484-0.275-0.372-0.144-0.641-0.319-0.919-0.597-0.281-0.281-0.453-0.547-0.6-0.919-0.109-0.281-0.241-0.706-0.275-1.484-0.038-0.844-0.047-1.097-0.047-3.231s0.009-2.391 0.047-3.231c0.034-0.781 0.166-1.203 0.275-1.484 0.144-0.372 0.319-0.641 0.597-0.919 0.281-0.281 0.547-0.453 0.919-0.6 0.281-0.109 0.706-0.241 1.484-0.275 0.841-0.038 1.094-0.047 3.231-0.047zM8 0c-2.172 0-2.444 0.009-3.297 0.047-0.85 0.038-1.434 0.175-1.941 0.372-0.528 0.206-0.975 0.478-1.419 0.925-0.447 0.444-0.719 0.891-0.925 1.416-0.197 0.509-0.334 1.091-0.372 1.941-0.037 0.856-0.047 1.128-0.047 3.3s0.009 2.444 0.047 3.297c0.038 0.85 0.175 1.434 0.372 1.941 0.206 0.528 0.478 0.975 0.925 1.419 0.444 0.444 0.891 0.719 1.416 0.922 0.509 0.197 1.091 0.334 1.941 0.372 0.853 0.037 1.125 0.047 3.297 0.047s2.444-0.009 3.297-0.047c0.85-0.037 1.434-0.175 1.941-0.372 0.525-0.203 0.972-0.478 1.416-0.922s0.719-0.891 0.922-1.416c0.197-0.509 0.334-1.091 0.372-1.941 0.037-0.853 0.047-1.125 0.047-3.297s-0.009-2.444-0.047-3.297c-0.037-0.85-0.175-1.434-0.372-1.941-0.197-0.531-0.469-0.978-0.916-1.422-0.444-0.444-0.891-0.719-1.416-0.922-0.509-0.197-1.091-0.334-1.941-0.372-0.856-0.041-1.128-0.050-3.3-0.050v0z"></path>
<path d="M8 3.891c-2.269 0-4.109 1.841-4.109 4.109s1.841 4.109 4.109 4.109 4.109-1.841 4.109-4.109c0-2.269-1.841-4.109-4.109-4.109zM8 10.666c-1.472 0-2.666-1.194-2.666-2.666s1.194-2.666 2.666-2.666c1.472 0 2.666 1.194 2.666 2.666s-1.194 2.666-2.666 2.666z"></path>
<path d="M13.231 3.728c0 0.53-0.43 0.959-0.959 0.959s-0.959-0.43-0.959-0.959c0-0.53 0.43-0.959 0.959-0.959s0.959 0.43 0.959 0.959z"></path>
</symbol>
<symbol id="icon-whatsapp11" viewBox="0 0 16 16">
<title>whatsapp11</title>
<path d="M13.641 2.325c-1.497-1.5-3.488-2.325-5.609-2.325-4.369 0-7.925 3.556-7.925 7.928 0 1.397 0.366 2.763 1.059 3.963l-1.125 4.109 4.203-1.103c1.159 0.631 2.463 0.966 3.787 0.966h0.003c0 0 0 0 0 0 4.369 0 7.928-3.556 7.928-7.928 0-2.119-0.825-4.109-2.322-5.609zM8.034 14.525v0c-1.184 0-2.344-0.319-3.356-0.919l-0.241-0.144-2.494 0.653 0.666-2.431-0.156-0.25c-0.663-1.047-1.009-2.259-1.009-3.506 0-3.634 2.956-6.591 6.594-6.591 1.759 0 3.416 0.688 4.659 1.931 1.244 1.247 1.928 2.9 1.928 4.662-0.003 3.637-2.959 6.594-6.591 6.594zM11.647 9.588c-0.197-0.1-1.172-0.578-1.353-0.644s-0.313-0.1-0.447 0.1c-0.131 0.197-0.512 0.644-0.628 0.778-0.116 0.131-0.231 0.15-0.428 0.050s-0.838-0.309-1.594-0.984c-0.588-0.525-0.987-1.175-1.103-1.372s-0.013-0.306 0.088-0.403c0.091-0.088 0.197-0.231 0.297-0.347s0.131-0.197 0.197-0.331c0.066-0.131 0.034-0.247-0.016-0.347s-0.447-1.075-0.609-1.472c-0.159-0.388-0.325-0.334-0.447-0.341-0.116-0.006-0.247-0.006-0.378-0.006s-0.347 0.050-0.528 0.247c-0.181 0.197-0.694 0.678-0.694 1.653s0.709 1.916 0.809 2.050c0.1 0.131 1.397 2.134 3.384 2.991 0.472 0.203 0.841 0.325 1.128 0.419 0.475 0.15 0.906 0.128 1.247 0.078 0.381-0.056 1.172-0.478 1.338-0.941s0.166-0.859 0.116-0.941c-0.047-0.088-0.178-0.137-0.378-0.238z"></path>
</symbol>
</defs>
</svg>
